# xmcd CD database file
#
# Track frame offsets:
#	182
#	12522
#	23822
#	36667
#	50070
#	59852
#	71715
#	83392
#	96030
#	107340
#	117925
#	128912
#	139962
#	149140
#
# Disc length: 2098 seconds
#
# Revision: 2
# Processed by: cddbd v1.5.1PL2 Copyright (c) Steve Scherf et al.
# Submitted via: CDex 1.51
#
DISCID=d408300e
DTITLE=Johnny Rodriguez - Greatest Hits
DYEAR=1976
DGENRE=Country
TTITLE0=I Couldn't Be Me Without You
TTITLE1=Pass Me By (If You're Only Passing Through)
TTITLE2=Something
TTITLE3=Faded Love
TTITLE4=Ridin' My Thumb To Mexico
TTITLE5=Born To Lose
TTITLE6=I Just Can't Get Her Out Of My Mind
TTITLE7=Love Put A Song In My Heart
TTITLE8=Dance With Me (Just One More Time)
TTITLE9=You Always Come Back (To Hurting Me
TTITLE10=We're Over
TTITLE11=Jealous Heart
TTITLE12=Just Get Up And Close The Door
TTITLE13=That's The Way Love Goes
EXTD=YEAR: 1976
EXTT0=
EXTT1=
EXTT2=
EXTT3=
EXTT4=
EXTT5=
EXTT6=
EXTT7=
EXTT8=
EXTT9=
EXTT10=
EXTT11=
EXTT12=
EXTT13=
PLAYORDER=
